<svg
  id="eM6H970PAdY1"
  xmlns="http://www.w3.org/2000/svg"
  xmlns:xlink="http://www.w3.org/1999/xlink"
  viewBox="0 0 430 430"
  shape-rendering="geometricPrecision"
  text-rendering="geometricPrecision"
>
  <defs><style>path{fill:red; stroke-width:10;}</style></defs>
  <g id="eM6H970PAdY2">
    <path
      id="trash-frame"
      d="M305.99,396.95L124.99,396.95C116.1,396.95,107.74,393.48,101.45,387.19C95.16,380.9,91.7,372.54,91.71,363.65C91.71,361.14,91.87,112.57,91.87,111.78L91.87,111.51C91.87,104.3,91.88,97.73,91.89,92.85C91.9,89.37,94.72,86.56,98.19,86.56C98.19,86.56,98.2,86.56,98.2,86.56C101.68,86.57,104.49,89.39,104.49,92.87C104.48,97.75,104.48,104.32,104.47,111.52L104.47,111.78C104.47,111.78,104.47,111.79,104.47,111.79L104.45,151.14L104.31,363.66C104.31,369.18,106.46,374.38,110.37,378.29C114.28,382.2,119.47,384.36,125,384.36L306,384.36C311.52,384.36,316.71,382.21,320.61,378.3C324.51,374.39,326.65,369.2,326.64,363.67L326.13,113.48C326.11,104.28,326.09,95.99,326.08,90.89C326.07,87.41,328.88,84.58,332.36,84.57C332.37,84.57,332.38,84.57,332.38,84.57C335.85,84.57,338.67,87.38,338.68,90.85C338.7,95.96,338.72,104.25,338.73,113.46L339.24,363.65C339.26,372.54,335.81,380.91,329.53,387.2C323.25,393.49,314.88,396.95,305.99,396.95Z"
    />
    <path
      id="trash-center"
      d="M273.94,319.4C270.46,319.4,267.64,316.58,267.64,313.1L267.64,157.19C267.64,153.71,270.46,150.89,273.94,150.89C277.42,150.89,280.24,153.71,280.24,157.19L280.24,313.1C280.24,316.58,277.42,319.4,273.94,319.4ZM215.53,319.4C212.05,319.4,209.23,316.58,209.23,313.1L209.23,157.19C209.23,153.71,212.05,150.89,215.53,150.89C219.01,150.89,221.83,153.71,221.83,157.19L221.83,313.1C221.83,316.58,219.01,319.4,215.53,319.4ZM156.86,319.4C153.38,319.4,150.56,316.58,150.56,313.1L150.56,157.19C150.56,153.71,153.38,150.89,156.86,150.89C160.34,150.89,163.16,153.71,163.16,157.19L163.16,313.1C163.16,316.58,160.34,319.4,156.86,319.4Z"
    />
    <g
      id="trash-top"
    >
      <path
        id="eM6H970PAdY6"
        d="M354.41,90.99C354.4,90.99,354.4,90.99,354.39,90.99L75.58,90.23C72.1,90.22,69.29,87.39,69.3,83.91C69.31,80.44,72.13,77.63,75.6,77.63C75.61,77.63,75.61,77.63,75.62,77.63L354.44,78.39C357.92,78.4,360.73,81.23,360.72,84.71C360.7,88.18,357.88,90.99,354.41,90.99Z"
      />
      <path
        id="eM6H970PAdY7"
        d="M259.34,87.5C255.86,87.5,253.04,84.68,253.04,81.2C253.04,60.25,233.31,45.65,215.6,45.65C196.4,45.65,179.92,59.97,177.27,78.96C176.79,82.41,173.6,84.82,170.16,84.33C166.71,83.85,164.31,80.67,164.79,77.22C168.3,52.04,190.14,33.05,215.6,33.05C239.27,33.05,265.64,52.82,265.64,81.2C265.64,84.68,262.82,87.5,259.34,87.5Z"
      />
    </g>
  </g>
</svg>
